<svg xmlns="http://www.w3.org/2000/svg" width="80" height="80" viewBox="0 0 80 80"><rect width="14.824" height="38" x="39.5" y="31.5" fill="#dcd5f2"></rect><path fill="#8b75a1" d="M54.823,70H39V31h15.823V70z M40,69h13.823V32H40V69z"></path><path fill="#8bb7f0" d="M43.5,39.5h3v3h-3V39.5z"></path><path fill="#7496c4" d="M47,43h-4v-4h4V43z M44,42h2v-2h-2V42z"></path><path fill="#8bb7f0" d="M49.5,39.5h3v3h-3V39.5z"></path><path fill="#7496c4" d="M53,43h-4v-4h4V43z M50,42h2v-2h-2V42z"></path><path fill="#8bb7f0" d="M43.5,46.5h3v3h-3V46.5z"></path><path fill="#7496c4" d="M47,50h-4v-4h4V50z M44,49h2v-2h-2V49z"></path><path fill="#8bb7f0" d="M49.5,46.5h3v3h-3V46.5z"></path><path fill="#7496c4" d="M53,50h-4v-4h4V50z M50,49h2v-2h-2V49z"></path><path fill="#8bb7f0" d="M43.5,53.5h3v3h-3V53.5z"></path><path fill="#7496c4" d="M47,57h-4v-4h4V57z M44,56h2v-2h-2V56z"></path><path fill="#8bb7f0" d="M49.5,53.5h3v3h-3V53.5z"></path><path fill="#7496c4" d="M53,57h-4v-4h4V57z M50,56h2v-2h-2V56z"></path><rect width="15" height="9" x="56.5" y="14.5" fill="#ffeea3"></rect><path fill="#ba9b48" d="M72,24H56V14h16V24z M57,23h14v-8H57V23z"></path><rect width="23" height="54" x="52.5" y="18.5" fill="#ffeea3"></rect><path fill="#ba9b48" d="M76,73H52V18h24V73z M53,72h22V19H53V72z"></path><path fill="#8bb7f0" d="M56.5,31.5h15v3h-15V31.5z"></path><path fill="#7496c4" d="M72,35H56v-4h16V35z M57,34h14v-2H57V34z"></path><path fill="#8bb7f0" d="M56.5,39.5h15v3h-15V39.5z"></path><path fill="#7496c4" d="M72,43H56v-4h16V43z M57,42h14v-2H57V42z"></path><g><path fill="#8bb7f0" d="M56.5,23.5h15v3h-15V23.5z"></path><path fill="#7496c4" d="M72,27H56v-4h16V27z M57,26h14v-2H57V26z"></path></g><g><path fill="#8bb7f0" d="M56.5,47.5h15v3h-15V47.5z"></path><path fill="#7496c4" d="M72,51H56v-4h16V51z M57,50h14v-2H57V50z"></path></g><g><path fill="#8bb7f0" d="M56.5,55.5h15v3h-15V55.5z"></path><path fill="#7496c4" d="M72,59H56v-4h16V59z M57,58h14v-2H57V58z"></path></g><g><path fill="#b5ddf5" d="M52.67,66.021c-27.699-6.875-26.328-33.735-21.128-47.334c-1.358-0.064-7.933-1.698-9.029-2.553 c-1.846-1.442-4.432-0.722-6.588,0.107c-2.731,1.05-5.512,2.237-7.588,4.392C6.348,22.7,3.859,29.448,2.5,33.457V77h74V64.8 C76.5,64.8,62.53,68.47,52.67,66.021z"></path><path fill="#7496c4" d="M77,77.5H2l0.026-44.203c1.631-4.81,3.987-10.971,5.951-13.01c2.152-2.235,5.019-3.455,7.769-4.513 c1.17-0.449,2.7-0.966,4.169-0.966c1.138,0,2.116,0.313,2.906,0.932c0.941,0.734,7.336,2.381,8.745,2.447l0.69,0.032l-0.247,0.646 c-3.141,8.214-4.87,21.521,0.595,31.987c3.85,7.374,10.642,12.314,20.187,14.684c2.211,0.549,4.824,0.828,7.767,0.828 c7.925,0,15.737-2.027,15.815-2.048L77,64.151V77.5z M3,76.5h73V65.438c-2.032,0.481-8.693,1.927-15.442,1.927 c-3.023,0-5.718-0.289-8.007-0.857c-9.836-2.441-16.845-7.553-20.833-15.191c-5.487-10.511-3.935-23.766-0.864-32.212 c-2.138-0.351-7.539-1.71-8.647-2.575c-0.619-0.484-1.369-0.72-2.291-0.72c-1.305,0-2.721,0.48-3.81,0.899 c-2.646,1.018-5.397,2.185-7.407,4.272C6.778,22.974,4.315,29.669,3,33.54V76.5z"></path></g><rect width="2" height="34.1" x="2" y="31" fill="#b5ddf5"></rect><path fill="#dbf2ff" d="M44.915,14.879c-1.081-2.986-3.647-5.049-6.385-6.049C25.727,4.156,8.053,11.946,2,29.94v6.332	C8.592,27.338,16.053,20.5,26.454,20.74c1.914,2.397,5.751,2.34,7.608-0.114c1.979,2.938,6.29,3.848,9.125,1.981	C45.668,20.971,45.995,17.865,44.915,14.879z"></path><path fill="#dbf2ff" d="M2,78h76V63.755C75.384,63.227,72.296,62,70,62c-2.917,0-7.125,2-10,2s-7.083-2-10-2s-7.125,2-10,2	s-7.083-2-10-2s-7.125,2-10,2s-7.083-2-10-2c-2.296,0-5.384,0.473-8,1V78z"></path><path fill="#7496c4" d="M70,62c-2.917,0-7.125,2-10,2s-7.083-2-10-2s-7.125,2-10,2s-7.083-2-10-2s-7.125,2-10,2	s-7.083-2-10-2c-2.296,0-8,0-8,0v1c0,0,5.704,0,8,0c2.917,0,7.125,2,10,2s7.083-2,10-2s7.125,2,10,2s7.083-2,10-2s7.125,2,10,2	s7.083-2,10-2c2.296,0,5.384,1.227,8,1.755v-1C75.384,63.227,72.296,62,70,62z"></path><path fill="#7496c4" d="M70,67c-2.917,0-7.125,2-10,2s-7.083-2-10-2s-7.125,2-10,2s-7.083-2-10-2s-7.125,2-10,2	s-7.083-2-10-2c-2.296,0-8,0-8,0v1c0,0,5.704,0,8,0c2.917,0,7.125,2,10,2s7.083-2,10-2s7.125,2,10,2s7.083-2,10-2s7.125,2,10,2	s7.083-2,10-2c2.296,0,5.384,1.227,8,1.755v-1C75.384,68.227,72.296,67,70,67z"></path><path fill="#7496c4" d="M45.385,14.709c-1.035-2.861-3.472-5.175-6.683-6.349C36.229,7.458,33.564,7,30.782,7	C19.765,7,7.323,14.34,2,28.447v3.173C6.493,16.098,19.423,8,30.782,8c2.665,0,5.214,0.438,7.576,1.3	c2.934,1.071,5.151,3.167,6.087,5.749c1.12,3.1,0.547,5.769-1.534,7.14c-0.884,0.582-1.959,0.89-3.11,0.89	c-2.148,0-4.189-1.047-5.324-2.731l-0.392-0.58l-0.422,0.558c-0.807,1.066-2.067,1.679-3.459,1.679c-1.336,0-2.56-0.574-3.359-1.575	l-0.146-0.183l-0.233-0.006C15.574,20.011,7.987,27.416,2,35.43v1.685c5.864-8.081,13.296-15.881,23.926-15.881	c0.097,0,0.194,0,0.292,0.002c0.988,1.126,2.428,1.768,3.986,1.768c1.48,0,2.844-0.569,3.83-1.58	c1.364,1.652,3.516,2.655,5.767,2.655c1.348,0,2.613-0.364,3.661-1.055C45.918,21.405,46.654,18.219,45.385,14.709z"></path></svg>