<?xml version="1.0" encoding="UTF-8" standalone="no"?>
<!-- Created with Inkscape (http://www.inkscape.org/) -->
<svg
   xmlns:dc="http://purl.org/dc/elements/1.1/"
   xmlns:cc="http://web.resource.org/cc/"
   xmlns:rdf="http://www.w3.org/1999/02/22-rdf-syntax-ns#"
   xmlns:svg="http://www.w3.org/2000/svg"
   xmlns="http://www.w3.org/2000/svg"
   xmlns:sodipodi="http://sodipodi.sourceforge.net/DTD/sodipodi-0.dtd"
   xmlns:inkscape="http://www.inkscape.org/namespaces/inkscape"
   width="703.32037"
   height="407.81543"
   id="svg2"
   sodipodi:version="0.32"
   inkscape:version="0.45.1"
   sodipodi:docbase="C:\Documents and Settings\Yuval\Desktop"
   sodipodi:docname="sample-image.svg"
   version="1.0"
   inkscape:output_extension="org.inkscape.output.svg.inkscape">
  <defs
     id="defs4" />
  <sodipodi:namedview
     id="base"
     pagecolor="#ffffff"
     bordercolor="#666666"
     borderopacity="1.0"
     gridtolerance="10000"
     guidetolerance="10"
     objecttolerance="10"
     inkscape:pageopacity="1"
     inkscape:pageshadow="2"
     inkscape:zoom="0.35"
     inkscape:cx="375"
     inkscape:cy="520"
     inkscape:document-units="px"
     inkscape:current-layer="svg2"
     inkscape:showpageshadow="true"
     showborder="true"
     borderlayer="false"
     showgrid="false"
     inkscape:window-width="1280"
     inkscape:window-height="943"
     inkscape:window-x="-4"
     inkscape:window-y="-4" />
  <metadata
     id="metadata7">
    <rdf:RDF>
      <cc:Work
         rdf:about="">
        <dc:format>image/svg+xml</dc:format>
        <dc:type
           rdf:resource="http://purl.org/dc/dcmitype/StillImage" />
      </cc:Work>
    </rdf:RDF>
  </metadata>
  <g
     inkscape:label="Layer 1"
     inkscape:groupmode="layer"
     id="layer1"
     transform="translate(-21.075504,-31.337365)">
    <path
       id="path4106"
       style="fill:#000080"
       d="M 137.65686,53.183127 C 131.71831,52.966115 125.77081,53.029755 119.82815,53.022977 C 114.37176,53.33827 108.87878,54.289985 103.45116,55.091275 C 98.351883,55.424595 93.604099,57.263222 88.77721,58.588982 C 80.876602,61.956213 104.31407,51.432118 112.06137,47.821452 C 108.24338,50.264 105.38491,53.540827 102.26039,56.552005 C 99.230812,60.267695 98.497737,64.699802 96.985065,68.87785 C 95.552594,73.678454 96.472241,78.508981 96.620333,83.316408 C 98.142962,88.648448 103.15307,91.641606 107.13125,95.486632 C 110.88503,98.365839 115.1545,100.60017 119.30913,103.02246 C 124.23452,105.26779 128.85502,107.97697 133.57933,110.49437 C 138.27106,113.11908 143.11566,115.53869 147.94542,117.96477 C 154.22664,120.10192 154.75614,124.40271 157.38331,128.74833 C 157.20622,134.69028 152.42312,137.93957 148.06001,142.07682 C 144.28377,145.53243 139.70548,148.19271 135.41193,151.1253 C 119.85072,164.9719 102.79109,170.52813 83.06411,173.23156 C 75.535184,173.78131 68.177235,172.83731 60.749644,171.98853 C 54.686469,171.22534 48.55726,171.14673 42.448692,170.89907 L 77.714971,149.53492 C 83.88366,149.91673 90.068121,150.17206 96.194588,150.94456 C 103.50775,151.54171 110.76523,152.41277 118.11213,151.27148 C 127.09784,148.84463 103.86319,162.58313 94.796021,164.78501 C 99.249428,161.99752 103.74672,159.2734 107.83663,156.08579 C 111.68383,152.92352 116.05452,150.05709 118.49782,145.91649 C 116.33063,142.91739 116.77778,139.14858 111.20201,137.81591 C 106.33103,135.36344 101.36576,133.03047 96.720155,130.27245 C 92.02941,127.78496 87.378043,125.23065 82.574572,122.89668 C 78.25951,120.29043 73.674324,118.00363 69.94986,114.74164 C 65.284855,110.35948 60.43566,106.22091 58.082557,100.48085 C 57.488969,95.306528 56.574022,90.230771 57.772432,85.008753 C 59.022474,80.438899 59.640551,75.770653 62.143961,71.484733 C 65.103138,68.043929 67.826871,64.454058 71.514621,61.4148 C 88.494001,52.853992 104.21972,41.548236 123.26404,35.993728 C 128.27871,34.798402 133.18329,33.222643 138.47131,33.061301 C 143.9651,32.278463 149.41519,31.154199 155.03708,31.497515 C 161.1545,31.490565 167.27593,31.548018 173.38969,31.337365 L 137.65686,53.183127 z M 200.06457,111.52947 C 204.88059,110.67823 209.54944,109.42506 214.30529,108.42343 C 219.62677,106.95341 225.22755,107.07364 230.73093,106.712 C 237.00109,107.22098 242.7846,109.34116 248.64274,111.06717 C 253.80002,112.5427 257.48026,115.84796 261.65538,118.56747 C 266.51854,121.94341 266.62231,126.60637 268.2432,131.22913 C 269.02602,136.17108 268.63142,141.15374 268.60618,146.10837 C 268.15892,150.34933 266.41074,154.31975 265.10679,158.37934 C 255.08026,174.41629 245.30478,172.92838 218.89715,185.95073 C 211.99376,187.41633 204.93837,188.33915 197.96462,189.62135 C 191.52324,191.61927 185.851,189.7081 179.74932,188.94521 C 175.62506,186.44338 173.97823,182.49714 171.5868,178.92898 C 169.10563,175.55667 166.84615,172.05004 164.48527,168.6189 C 162.05908,163.93502 161.95009,158.88326 161.44067,153.89287 C 161.22781,148.85204 161.29299,143.8071 161.29976,138.7642 C 161.15946,136.28423 161.4306,133.80962 161.49593,131.33576 L 200.73326,115.0801 C 200.54786,117.3888 199.68394,119.73203 200.1686,122.11196 C 200.15286,127.10247 200.09504,132.094 200.22913,137.08376 C 200.69454,141.5916 200.43714,146.21275 202.55741,150.48704 C 204.94605,153.81938 207.30857,157.21133 209.67173,160.56626 C 211.58934,163.24725 212.52796,166.76028 216.08904,168.28488 C 221.59125,168.39111 227.09026,169.18581 232.57888,167.57446 C 239.4421,166.36112 246.61922,165.64367 252.87544,162.85581 C 193.92164,192.10187 214.19488,184.99011 225.47073,174.12022 C 226.90192,170.19807 228.68318,166.46628 229.36854,162.36305 C 229.60519,157.75464 230.40426,153.02858 229.56352,148.35195 C 228.40484,144.51262 228.63428,140.77849 224.50714,138.06064 C 220.60532,135.65592 217.10402,132.74604 212.33521,131.48472 C 206.81756,130.13135 201.46672,128.05769 195.55382,128.47202 C 190.22204,129.09739 184.78096,129.21669 179.69959,130.9505 C 174.62361,131.87155 169.5372,133.12844 164.33173,133.37522 L 200.06457,111.52947 z M 271.9253,115.21483 C 272.44471,120.28704 273.29215,125.35539 273.98782,130.4224 C 274.55182,135.67304 274.55643,140.94598 274.65883,146.2119 C 273.84404,150.243 277.56541,152.44141 279.33451,155.30415 C 282.29944,157.8081 286.36809,158.92061 289.99649,160.52301 C 294.01538,162.43472 297.83804,164.61991 301.64279,166.81996 C 303.30604,168.40792 305.76751,169.03769 307.79778,170.12931 L 271.13267,190.29135 C 269.04726,189.13215 266.83249,188.12909 264.86887,186.80956 C 261.15006,184.76783 257.53223,182.55901 253.48495,180.98962 C 249.51485,179.12296 245.23244,177.59973 242.00962,174.79443 C 239.22767,170.9369 235.61336,167.95024 235.81866,162.88881 C 235.77029,157.70001 235.80788,152.50613 235.38542,147.32589 C 234.73495,142.21214 234.36232,137.04506 232.57113,132.08795 L 271.9253,115.21483 z M 340.42218,127.74485 C 340.04058,132.85285 340.14613,137.97605 340.13368,143.09129 C 339.58886,147.81312 340.92969,152.33116 341.8561,156.93492 C 342.90338,161.68184 342.83354,166.51314 343.10564,171.31246 C 342.94124,172.9983 345.73925,173.86855 347.05607,175.14659 C 298.01513,207.50537 304.68336,198.60015 316.40508,186.51686 C 318.76389,183.19086 320.21214,179.55876 321.9413,175.99607 C 323.8282,171.92138 325.67437,167.83347 327.5389,163.75524 C 329.15133,159.70331 331.80546,156.07289 334.17764,152.32556 C 337.28736,148.59786 340.75738,145.09728 344.12122,141.53317 C 346.723,137.98585 350.14626,134.9732 353.28137,131.79215 C 386.77058,113.3054 389.93444,102.78992 400.74151,122.67164 C 402.57851,129.92609 402.31547,137.3937 402.40875,144.77039 C 402.50209,151.79055 402.5916,158.8107 402.67201,165.83096 C 402.3662,167.58555 404.5174,169.01965 405.4401,170.61398 C 350.14486,200.62123 366.64074,193.1289 377.75081,178.49421 C 380.63197,174.57888 382.39855,170.26605 384.47137,166.04182 C 386.45801,161.916 387.66254,157.56426 389.12708,153.30159 C 390.5807,148.25167 392.40747,143.2908 394.19405,138.32029 C 400.93693,121.32375 424.39291,118.17426 442.1566,109.78465 C 447.90078,108.32206 453.19918,109.82367 458.83014,110.44941 C 463.83359,111.66812 467.3623,114.67367 471.32993,117.23401 C 475.22714,121.18109 476.63717,126.09236 478.52332,130.82425 C 479.50607,135.88183 480.63069,140.91708 481.79745,145.94846 C 482.83334,151.00759 482.87697,156.14101 483.09404,161.25349 C 483.1801,166.27617 483.15093,171.29953 483.14616,176.32254 C 483.14472,177.1578 483.14328,177.99309 483.14184,178.82835 L 444.27394,195.48706 C 444.27536,194.65171 444.27676,193.81635 444.27817,192.98101 C 444.28427,187.97809 444.31223,182.97505 444.26383,177.97221 C 444.06867,173.02227 444.17131,168.04872 443.27727,163.13576 C 442.16142,158.19036 440.94406,153.2647 440.13898,148.27807 C 438.40498,144.28662 437.65129,139.88589 434.06981,136.60686 C 430.45354,134.78332 427.41082,131.97715 422.9295,131.53067 C 417.72673,131.3846 412.73444,130.28611 407.68871,132.41303 C 415.8168,128.33939 439.73838,116.55075 433.54824,122.5709 C 431.73926,127.46252 430.15974,132.39576 428.42429,137.30695 C 427.02553,141.73698 425.99786,146.25481 424.2584,150.61282 C 422.22924,154.9632 420.44408,159.44597 417.37561,163.38544 C 405.50112,181.58936 406.80052,180.28318 370.73401,193.6121 C 366.71023,189.96875 362.66858,189.10369 363.95616,182.41881 C 364.08067,175.34158 364.25025,168.26407 364.2281,161.18582 C 364.03819,154.22042 364.15535,147.17978 362.4642,140.32579 C 361.21009,139.05412 361.27469,133.88619 358.05173,135.85151 C 370.05291,129.94993 382.05409,124.04833 394.05527,118.14673 C 390.56401,120.82063 386.6711,123.18047 384.15917,126.81075 C 380.87867,130.38806 378.03412,134.26868 374.27139,137.53921 C 371.83587,141.05543 368.78918,144.44035 367.31796,148.38418 C 365.43611,152.42514 363.20558,156.34381 361.7687,160.53836 C 360.18066,164.15002 358.78579,167.90687 356.30481,171.16182 C 346.46705,187.85566 348.58823,184.42931 312.31283,198.18612 C 308.99822,194.89724 303.5704,194.17048 304.26179,188.04995 C 304.04338,183.43074 304.13209,178.78474 303.22189,174.2068 C 302.22953,169.3941 300.81177,164.64973 301.35651,159.71702 C 301.34424,154.68438 301.45602,149.64288 301.06802,144.61797 L 340.42218,127.74485 z M 525.00985,103.00864 C 524.54584,109.26752 524.67275,115.54184 524.6751,121.80872 C 524.74178,127.43615 524.77179,133.06376 524.80432,138.69136 C 524.82345,143.72511 524.81963,148.75889 524.82257,153.79265 C 524.82257,158.79642 524.82208,163.80019 524.8217,168.80396 C 524.82139,173.81509 524.82143,178.82623 524.82136,183.83739 C 524.82134,188.84947 524.82135,193.86155 524.82135,198.87363 C 524.82135,203.88564 524.82135,208.89768 524.82135,213.9097 L 485.95635,230.57309 C 485.95635,225.56106 485.95635,220.54904 485.95635,215.53702 C 485.95635,210.52493 485.95636,205.51285 485.95634,200.50078 C 485.95628,195.48973 485.95631,190.47868 485.956,185.46764 C 485.95562,180.46411 485.95514,175.46059 485.95514,170.45707 C 485.95807,165.41811 485.95427,160.3791 485.97338,155.34014 C 486.00596,149.67559 486.03609,144.01105 486.10261,138.34668 C 486.10492,132.17563 486.2401,125.99622 485.76786,119.83365 L 525.00985,103.00864 z M 521.70209,106.51746 C 527.96147,106.02319 533.82028,107.23631 539.835,108.08082 C 546.48716,109.30344 550.66412,112.82412 555.40198,116.47081 C 559.25852,120.11273 560.41693,124.6467 562.45526,128.97613 C 564.1641,133.64274 562.86891,138.22344 562.51031,142.87338 C 561.69891,147.72814 558.36928,151.616 555.80081,155.82969 C 552.93494,159.91021 548.32515,162.42277 544.21529,165.43467 C 526.67963,176.60094 513.3524,181.92131 495.62011,187.31871 L 530.20507,164.65003 C 545.09968,159.24796 568.52581,150.68125 503.40965,178.87338 C 507.82868,176.3079 512.39077,174.11112 515.81162,170.50052 C 518.59601,166.77997 521.82075,163.32841 523.1171,158.96186 C 523.82099,154.70678 525.46422,150.76015 523.92183,146.40173 C 522.24612,142.6025 521.42531,138.64223 517.98369,135.4742 C 513.55445,132.79311 509.94179,129.42281 504.01765,128.82648 C 498.02993,128.44061 492.02787,127.81551 485.96925,128.36322 L 521.70209,106.51746 z M 602.49719,65.094771 C 602.06329,70.715951 602.15886,76.351627 602.13857,81.980789 C 602.18401,87.513203 602.21023,93.045687 602.23674,98.578168 C 602.25347,103.61588 602.25052,108.65361 602.25338,113.69133 C 601.803,118.63985 602.58975,123.54174 602.92986,128.44402 C 604.1841,133.46244 604.52003,138.56956 604.99003,143.6636 C 604.1296,148.38764 606.07269,152.5824 607.10436,157.00279 C 607.48803,157.52629 607.87169,158.04979 608.25536,158.5733 L 570.37714,177.03875 C 569.89395,176.34118 569.41075,175.64362 568.92755,174.94606 C 567.6137,170.11282 565.1183,165.71288 566.22114,160.48261 C 565.77563,155.52105 565.70039,150.52117 564.4063,145.63529 C 563.73865,140.54319 562.87631,135.52501 563.38682,130.3554 C 563.38969,125.31291 563.38675,120.27043 563.40347,115.22795 C 563.43,109.6674 563.45628,104.10687 563.50164,98.546391 C 563.48167,93.019856 563.58527,87.485919 563.14302,81.967887 L 602.49719,65.094771 z M 703.61891,118.40031 C 691.35836,131.68865 669.04899,135.55537 652.4696,142.73633 C 646.64351,143.32955 640.76567,143.26911 634.90961,143.38771 C 612.5143,138.66523 665.32798,126.6356 674.89593,121.64141 C 680.74737,121.48291 686.48334,122.62142 692.23692,123.42342 C 698.16929,124.07916 704.15506,124.07538 710.12379,124.19225 C 720.14208,123.37208 691.98251,131.53601 682.88294,135.15671 C 685.28799,130.76247 684.97698,125.94778 685.48159,121.26236 C 685.43897,116.12056 681.58226,115.28421 677.70165,112.4387 C 672.80095,109.42551 667.01869,109.17458 661.26249,108.4228 C 655.24499,108.0465 649.20711,108.13286 643.17847,108.12514 C 637.48553,107.44199 632.30465,108.85075 626.81776,109.64177 C 617.5071,113.00895 644.50517,101.31284 653.3967,97.221416 C 649.47893,99.481794 647.55286,103.13806 645.03993,106.36681 C 642.21327,111.1207 640.75532,116.23036 639.13118,121.31022 C 637.85866,126.05459 638.31026,130.91172 638.23131,135.69471 C 638.26617,139.47711 641.66975,141.67065 643.8174,144.52562 C 647.38699,147.53866 650.96419,150.54142 654.60488,153.49652 C 657.75757,156.43991 661.21321,159.13119 664.52056,161.94073 C 668.1532,165.25968 672.91224,167.20013 677.4014,169.52511 C 681.1521,172.40416 685.94551,173.68504 690.4385,175.40698 C 694.9077,176.61093 699.61545,176.43086 704.21736,176.78755 L 668.77081,198.19367 C 663.85141,197.69122 658.83886,197.56667 654.17978,195.93808 C 649.57205,193.97053 644.67574,192.43745 640.69468,189.53835 C 636.05514,186.9489 631.12206,184.71815 627.16612,181.34537 C 623.89602,178.50045 620.54958,175.71656 617.3707,172.79717 C 613.65662,169.77921 609.98495,166.73312 606.27399,163.71283 C 603.51562,160.22818 599.9548,157.28466 599.51391,152.80902 C 599.31654,147.67576 598.8609,142.49669 599.95939,137.36219 C 601.37541,131.98933 602.7158,126.67387 605.34933,121.58789 C 607.68344,117.98594 609.22013,114.02335 612.62159,110.95973 C 628.45089,102.98598 642.90683,90.567357 661.70869,87.39224 C 667.27234,86.964038 672.80018,86.054047 678.46239,86.558348 C 684.59411,86.631129 690.74825,86.560371 696.84124,87.25232 C 702.9586,88.419491 709.11656,89.154521 714.32802,92.423567 C 719.34658,96.101559 723.85288,98.508158 724.3959,104.69023 C 724.15893,109.74703 724.24283,114.85986 722.61808,119.78381 C 709.86548,127.4353 696.87161,148.6292 674.78852,145.70553 C 668.71164,145.48877 662.61457,145.4003 656.59804,144.54885 C 650.89199,143.81321 645.23255,142.90936 639.42371,143.34406 C 649.5309,135.91244 657.31375,124.28642 670.36934,121.66487 C 675.99933,121.48047 681.70076,121.70945 687.22419,120.52474 C 679.1613,124.75532 655.17976,137.72095 663.10886,133.31495 L 703.61891,118.40031 z M 96.215921,210.44295 C 96.187222,214.52454 98.200406,218.22318 99.506039,222.061 C 100.922,225.98382 102.51895,229.87177 104.08166,233.75628 C 106.22623,237.63961 106.75912,241.89168 107.76333,246.02852 C 109.59785,250.25905 109.79076,254.73846 110.51944,259.13587 C 110.91938,264.09335 110.83117,269.06391 110.88818,274.0287 C 110.88662,279.04788 110.8764,284.06707 110.86887,289.08624 C 110.86296,294.09948 110.86303,299.11274 110.86199,304.12598 C 110.96388,309.25125 109.73289,314.31348 108.81924,319.363 C 108.37299,323.84464 107.06961,328.22477 105.93155,332.60823 C 105.67332,337.10435 104.5833,341.49034 103.8335,345.91863 C 103.27493,350.12298 101.65018,354.08778 100.3604,358.14385 C 90.263653,371.6688 68.050565,375.98541 52.421233,383.19473 C 67.169918,379.43439 78.369919,369.19875 91.388326,362.25907 C 97.836449,362.39618 104.28768,362.32886 110.73703,362.30914 C 116.94822,362.28133 123.15948,362.27672 129.37074,362.26851 C 135.33538,362.26428 141.30002,362.26546 147.26467,362.26506 C 150.24043,362.26513 153.21618,362.26522 156.19194,362.2653 L 120.90266,383.83981 C 117.92681,383.83979 114.95095,383.83981 111.97509,383.83975 C 106.01412,383.83946 100.05313,383.83954 94.092148,383.83841 C 87.909702,383.83713 81.727256,383.83507 75.54481,383.83612 C 68.974105,383.84535 62.40326,383.84239 55.832859,383.90619 C 36.785103,374.4273 47.092581,380.12433 87.066746,360.5969 C 78.245002,364.96731 51.848685,378.16722 60.499596,373.56136 C 62.156997,369.79105 64.189768,366.08307 64.401333,361.93977 C 65.366226,357.55397 66.876673,353.35631 66.665414,348.81879 C 67.726665,344.42784 68.770773,340.00478 69.723125,335.62422 C 70.550561,330.69065 71.734467,325.74943 71.996894,320.78907 C 71.997737,315.7747 71.997545,310.76032 72.002818,305.74596 C 72.009994,300.72958 72.018569,295.71321 72.024513,290.69684 C 71.983723,285.82073 72.063862,280.94059 71.74016,276.06934 C 71.116953,271.86499 71.020918,267.58615 69.227958,263.55304 C 68.292616,259.56263 67.739302,255.45657 65.765345,251.68978 C 64.192617,247.7313 62.559169,243.77003 61.145724,239.77014 C 59.654286,235.62232 57.871325,231.58072 56.861753,227.31607 L 96.215921,210.44295 z M 57.420796,212.4446 C 63.299312,214.06004 69.28079,215.40112 75.271692,216.6945 C 81.778665,218.63754 88.634526,218.8155 95.42584,219.30209 C 101.7662,219.52256 108.11315,219.46483 114.45705,219.46151 C 120.58412,220.3295 125.55774,218.1051 131.1011,216.64627 C 136.25771,215.19612 141.10141,213.1728 146.09674,211.41965 C 150.12639,210.531 153.86315,209.17181 157.78476,208.01282 L 123.19124,230.65485 C 119.37929,231.83243 115.56786,233.01011 111.81373,234.30859 C 106.79089,236.02666 101.77731,237.78416 96.674128,239.34113 C 90.886103,240.18855 85.235445,241.78005 79.183758,241.02465 C 72.819939,240.97359 66.448506,241.00299 60.0987,240.5793 C 53.11835,239.86509 46.087468,239.40596 39.405929,237.37018 C 33.308911,236.0491 27.249787,234.57054 21.075504,233.53987 L 57.420796,212.4446 z M 182.67947,275.19908 C 183.8652,280.36885 184.30257,285.6128 184.87273,290.84369 C 185.27747,296.08978 185.26407,301.34777 185.32586,306.6017 C 184.64408,311.23184 185.90005,315.65956 186.54045,320.18697 C 187.80911,324.79858 187.79319,329.53241 188.17726,334.22207 C 187.45075,338.14123 189.83538,341.64112 190.95423,345.11226 C 178.71681,344.84677 167.75685,351.82563 156.67985,356.21048 C 158.04507,351.39049 159.26125,346.54482 160.56415,341.71374 C 161.81424,337.6155 163.47916,333.63172 164.95713,329.59796 C 166.38014,325.92938 168.67618,322.57708 170.6649,319.12425 C 172.5996,315.74095 176.34697,313.63749 179.23511,311.02778 C 205.44047,290.67871 210.785,286.54445 229.54473,294.7168 C 233.31182,297.85221 233.95332,302.09396 235.55966,306.09905 C 237.69895,310.29669 237.82777,314.83163 238.60019,319.2601 C 238.6663,323.44062 240.15526,327.47624 241.24558,331.51122 C 242.78725,335.36183 243.95823,339.31115 245.16745,343.23859 C 251.65311,353.70591 221.25462,355.68142 208.5751,360.73236 C 208.64224,355.99 209.45524,351.35268 210.2172,346.66938 C 212.05689,341.22609 213.27886,335.70074 214.47586,330.13986 C 215.04337,325.35463 217.64074,321.14635 219.48028,316.77541 C 232.67345,303.328 253.14729,297.9721 271.82276,292.39457 C 278.49413,289.43495 283.05353,292.05353 289.34671,293.37255 C 295.27866,296.06716 298.91715,300.58247 302.87612,304.96098 C 306.06416,307.88097 308.56984,311.20192 311.38703,314.34976 C 314.43411,317.22469 316.06813,320.70735 318.19886,324.04238 C 321.00179,327.9649 321.04734,332.45529 321.96828,336.79359 C 322.99091,341.34871 321.00627,345.47236 319.81882,349.76627 C 318.773,352.86694 315.74754,354.98329 313.7307,357.5677 L 273.15408,371.72221 C 275.42934,369.57157 278.15336,367.74934 280.00195,365.24939 C 281.48998,361.47832 283.90977,357.95079 283.20352,353.76856 C 282.48377,349.86873 282.57526,345.8354 280.05743,342.31526 C 277.91498,339.23586 276.59637,335.78714 273.58003,333.12836 C 270.79688,329.94581 268.21937,326.64687 265.21804,323.58959 C 261.49339,319.82279 258.86582,315.56273 252.98076,313.78599 C 247.46027,313.52298 242.88606,312.10249 237.45899,314.96112 C 212.83255,323.6433 251.9662,306.33288 259.73343,302.28923 C 257.33269,306.13113 253.8156,309.31464 253.7279,314.26362 C 252.49328,319.70509 251.45605,325.25982 249.38323,330.55504 C 248.68575,335.1083 247.28852,339.53326 247.95038,344.17792 C 242.30612,347.23328 211.37366,379.83604 206.75055,361.00388 C 205.53537,357.0726 204.29837,353.1397 202.82375,349.26717 C 201.61448,344.96945 199.93747,340.65644 199.82311,336.19371 C 199.18582,332.03521 199.16003,327.78595 197.15432,323.84756 C 195.80867,320.30017 195.35733,316.55866 191.94174,313.86014 C 201.33673,308.38412 208.58456,297.38531 220.01276,297.29455 C 216.82221,299.55228 212.95844,301.08419 210.95117,304.40901 C 208.89064,307.53419 206.15038,310.44044 204.60441,313.88551 C 203.0425,317.92461 201.31065,321.83642 200.04276,325.96035 C 198.68676,330.6912 197.02968,335.45732 196.15143,340.29873 C 186.71087,346.41451 169.02803,380.97941 152.81778,363.72812 C 151.2661,359.57554 148.83688,355.58388 149.34758,351.00461 C 149.0304,346.51373 149.08924,341.98252 147.93498,337.55964 C 147.18006,332.7899 145.71951,328.15687 146.47888,323.26742 C 146.45998,318.0689 146.50393,312.86778 146.22233,307.67298 C 145.7408,302.71006 145.61596,297.67142 143.84192,292.8721 L 182.67947,275.19908 z M 354.66335,329.85885 C 351.12293,326.5469 346.54735,324.20927 342.33455,321.56482 C 338.08735,319.41018 333.25889,318.42788 328.71438,316.95368 C 323.50706,315.78391 318.16339,316.55696 313.01305,316.67236 C 303.75995,320.07788 330.3774,307.98525 339.19736,303.84516 C 335.04574,306.57089 335.4969,310.4819 334.44974,314.36014 C 333.59533,319.85095 334.33298,325.28571 334.79932,330.74146 C 335.49748,335.89189 339.82647,338.76129 343.30871,342.51926 C 347.75203,345.87908 353.2031,347.80489 358.42578,350.10132 C 363.30238,352.0275 368.64041,351.80581 373.85016,352.22172 C 380.45616,352.84683 386.84572,352.00151 393.3464,351.38248 C 401.8126,348.14149 376.93812,358.75785 368.69363,362.381 C 371.74601,358.32239 372.71295,353.52011 374.32,348.9955 C 375.51503,344.79722 377.15205,340.68931 378.63198,336.56714 C 414.24551,315.74206 416.09781,307.30362 424.54771,329.18745 C 425.48611,335.60161 426.79687,341.9631 428.1224,348.32803 C 428.41523,352.78526 431.57243,356.00091 433.79341,359.60023 C 437.56061,362.63577 442.57537,364.07768 447.19379,365.92397 C 451.30045,366.52122 455.16326,367.74259 459.16774,368.68296 L 423.02906,389.51937 C 418.93854,388.51687 414.85167,387.48053 410.80594,386.37167 C 405.77366,384.09406 400.35398,382.25773 396.34177,378.68715 C 393.69242,374.36853 390.0009,370.67931 389.71027,365.39764 C 388.53157,359.11148 387.32894,352.83182 386.31529,346.52795 C 385.46969,345.05056 384.86799,338.47297 382.7926,340.37337 C 394.88543,334.24291 406.97827,328.11244 419.07112,321.98196 C 417.35246,325.16349 414.37797,328.94117 413.5642,333.00175 C 412.1759,337.914 410.9184,342.85015 408.73773,347.57736 C 394.2477,355.78383 378.35184,370.56401 358.55652,373.32431 C 351.8426,373.63923 345.1198,374.16644 338.37372,373.64173 C 332.74374,372.86612 326.95884,372.8753 321.88531,370.27032 C 316.44647,367.63593 310.67082,365.44216 306.12778,361.67996 C 301.8476,357.41132 297.5952,353.631 296.36283,347.83273 C 295.71864,342.16635 294.784,336.54582 295.38287,330.81308 C 295.99822,326.38368 295.61753,321.80652 298.54777,317.84744 C 314.14739,309.87694 329.07449,296.77973 348.1046,294.67501 C 353.70256,294.93551 359.3956,294.6867 364.8336,296.12371 C 369.68768,297.87574 374.80842,299.25925 379.19582,301.84233 C 383.441,304.48418 387.6906,307.1179 391.90193,309.79529 L 354.66335,329.85885 z M 387.99269,300.15471 C 393.84225,301.93622 399.04537,304.71957 404.40375,307.29616 C 410.03048,309.34292 413.66068,313.25478 417.99092,316.59812 C 419.28388,317.59576 419.84487,319.03386 420.75946,320.23543 L 382.73126,338.61229 C 382.6608,338.52007 380.88633,335.55107 380.50275,335.69553 C 376.48775,332.60299 373.02757,329.02211 367.82984,327.10644 C 362.61579,324.80209 357.56108,322.13214 351.64739,321.24998 L 387.99269,300.15471 z M 485.71178,332.67612 C 486.72613,327.51507 484.95136,322.72449 483.66319,317.77396 C 481.06551,311.05779 475.11602,306.29232 469.41881,301.35095 C 463.78973,296.32244 456.86888,294.15416 449.51391,291.83675 C 439.98323,294.21062 466.13074,282.62584 474.82396,278.57102 C 471.40824,282.47821 470.74986,287.25575 469.19192,291.74319 C 468.207,296.66213 468.37426,301.65604 468.19909,306.61966 C 467.42275,311.43179 469.87176,315.53287 471.43715,319.96019 C 473.49911,323.43313 475.54255,326.89753 477.56158,330.38359 C 478.76668,333.73818 482.29475,335.70768 484.67493,338.17729 C 489.29571,340.19302 493.74578,338.71928 498.53815,338.35537 C 504.19118,337.066 509.67785,335.45073 515.25081,334.03441 C 508.91301,340.2455 482.1313,349.60728 488.16643,343.18627 C 490.98235,339.03364 490.87912,334.35406 491.62698,329.80552 C 496.90175,318.93768 517.50847,320.99894 530.72273,317.23465 C 529.12614,323.8316 528.35305,330.5364 527.18781,337.19264 C 526.30819,343.75215 524.79924,350.21966 523.30521,356.69399 C 521.96043,362.75143 519.66169,368.60068 517.51292,374.47681 C 515.9578,380.21207 511.86161,384.64561 508.14917,389.42273 C 503.2397,395.29109 496.27912,399.15733 489.57059,403.34709 C 474.97694,411.81222 458.81939,418.47225 443.77469,426.12012 C 432.45784,431.87297 489.75434,404.1372 478.13192,409.44118 C 475.95588,410.43424 381.67284,455.92593 472.7801,411.97883 C 441.94664,428.23307 393.53969,450.9231 460.55605,418.73647 C 433.10429,435.74475 430.27048,437.38651 407.75023,438.96424 C 401.65772,439.53563 395.81311,438.68591 389.83937,438.04289 C 382.65901,436.13349 376.12422,433.03779 369.49482,430.11013 C 364.48906,427.87025 359.72354,425.33037 354.94586,422.7696 L 391.64864,402.9683 C 396.27988,405.46483 400.86862,408.00823 405.75546,410.14715 C 412.15393,412.81747 418.38648,415.90437 425.53483,416.97194 C 431.31327,417.17531 437.11732,417.81878 442.93119,417.17648 C 460.9486,414.29484 481.52037,406.90763 419.63749,432.06988 C 420.28741,431.76517 420.93734,431.46047 421.58726,431.15576 C 434.69906,424.68366 447.81086,418.21157 460.92264,411.73947 C 470.31367,406.92863 422.94088,430.35561 432.11946,425.2627 C 445.39385,418.78003 458.69482,412.33573 471.94264,405.81467 C 483.38502,400.18232 426.04576,428.1598 437.53581,422.59657 C 450.90748,416.12232 464.1558,409.46718 477.58752,403.08155 C 487.04767,398.58407 440.00464,421.44474 449.28456,416.68879 C 456.07713,412.81706 463.17794,409.23126 468.36893,403.73472 C 472.20127,399.39054 476.38401,395.3199 478.15511,389.97117 C 480.36816,384.27405 482.87411,378.63288 484.2296,372.72424 C 485.83252,366.22118 487.62778,359.7495 488.52929,353.14301 C 489.51673,346.58356 490.57981,340.05153 491.34501,333.46562 C 497.3868,330.22221 526.3906,292.71868 530.85308,313.28341 C 530.1863,318.23461 530.10599,323.28854 527.9125,328.00014 C 518.09514,343.31064 506.21917,351.98608 480.75725,356.66038 C 475.06188,357.9662 469.39141,359.48268 463.56206,360.33614 C 457.83321,360.09388 452.53559,361.26926 447.52391,357.8929 C 444.55371,354.90265 441.02543,352.2871 439.32591,348.4685 C 437.28249,344.89587 435.1848,341.35394 433.155,337.76982 C 431.42922,332.98395 428.7674,328.43328 429.32571,323.26004 C 429.39871,318.12991 429.32297,312.98531 430.02578,307.87911 C 431.17199,302.90061 432.14983,297.96649 434.68243,293.2986 C 449.38625,285.24672 465.35412,267.69564 485.4534,271.21234 C 492.92701,274.24804 500.2508,277.09662 506.0117,282.44749 C 512.26143,287.80449 518.74864,293.02789 521.83077,300.25967 C 523.33972,305.39522 525.33477,310.41952 525.06594,315.803 L 485.71178,332.67612 z M 557.74582,320.20274 C 563.65998,321.41404 569.56783,322.58811 575.50746,323.72074 C 581.7958,324.11296 587.94334,324.87974 594.15552,325.65343 C 599.99217,326.77852 605.97607,326.77319 611.90948,327.10658 C 617.84209,327.23526 623.77706,327.19291 629.7109,327.2006 C 639.97276,325.43024 610.76166,334.72022 601.27106,338.45133 C 602.55718,333.7117 602.08623,328.84963 602.00458,324.05864 C 602.77878,319.30579 598.73938,316.82881 596.6608,313.26126 C 592.81763,310.07165 588.15037,310.20792 583.32317,309.13284 C 577.22936,308.3889 571.12109,307.4931 565.0399,306.60963 C 559.8863,306.79629 555.4682,308.81542 550.75967,310.21461 C 542.6077,313.79227 566.75263,302.57817 574.78421,298.81261 C 570.97333,300.72803 569.10265,304.06636 566.37952,306.79761 C 563.54688,309.96208 562.69388,313.70817 561.17012,317.32172 C 559.071,321.2093 558.82309,325.4219 557.97728,329.541 C 556.88743,333.6262 559.24184,337.20854 560.26888,340.9955 C 561.3941,345.06205 564.32311,348.37274 566.62891,351.92586 C 570.10769,355.75277 575.03056,358.15975 579.63257,360.87783 C 583.62716,363.37917 587.82177,365.55203 592.03202,367.78125 C 596.64297,370.35126 601.79627,372.14389 606.71425,374.24648 C 611.12847,375.91826 615.69982,377.23773 620.25801,378.61572 C 625.3337,379.74815 630.59992,379.57521 635.79058,379.80566 C 636.75607,379.81431 637.72157,379.82296 638.68706,379.83161 L 603.33653,401.36314 C 602.35513,401.34273 601.37371,401.32231 600.39229,401.3019 C 594.87517,400.87166 589.23983,400.99881 583.96591,399.29492 C 579.29576,397.78617 574.53707,396.39902 570.12727,394.39728 C 565.10782,392.25551 559.95506,390.29824 555.168,387.79445 C 551.00865,385.41791 546.77972,383.15538 542.8091,380.55232 C 537.85767,377.56701 532.64914,374.82569 528.89723,370.68227 C 526.43694,366.8663 523.35478,363.27728 521.97681,358.99913 C 520.50696,354.71323 518.14561,350.62328 518.89617,345.9796 C 519.48634,341.61856 519.39295,337.14316 521.49825,333.01897 C 522.77024,329.26519 523.43261,325.20244 526.40038,322.02696 C 528.63604,318.70975 530.26456,314.99435 534.17176,312.72775 C 550.55213,304.28485 566.76763,293.72604 585.03502,287.47152 C 590.23737,286.39988 595.17903,284.48066 600.70737,285.41707 C 606.73515,286.40905 612.768,287.46401 618.86452,288.10996 C 624.54782,289.52793 629.86632,290.1964 634.15835,294.07291 C 637.0497,298.31143 640.78625,301.63327 640.58138,307.03599 C 640.90665,312.15659 641.5397,317.3 640.71019,322.44172 C 630.06398,329.15436 616.95333,352.01226 594.42205,348.77505 C 588.4489,348.75371 582.47244,348.78667 576.5041,348.5443 C 570.45001,348.11907 564.37845,347.81469 558.43125,346.6657 C 552.22439,346.06643 545.98098,345.55879 539.82019,344.64763 C 533.71116,343.41088 527.61168,342.1282 521.40051,341.29801 L 557.74582,320.20274 z " />
  </g>
</svg>
